solid Default
  facet normal -1.000000e+00 -0.000000e+00 -0.000000e+00
    outer loop
      vertex -5.285000e+00 -3.260000e+00 0.000000e+00
      vertex -5.285000e+00 -3.260000e+00 1.809000e+01
      vertex -5.285000e+00 3.260000e+00 0.000000e+00
    endloop
  endfacet
  facet normal -1.000000e+00 0.000000e+00 0.000000e+00
    outer loop
      vertex -5.285000e+00 3.260000e+00 0.000000e+00
      vertex -5.285000e+00 -3.260000e+00 1.809000e+01
      vertex -5.285000e+00 3.260000e+00 1.809000e+01
    endloop
  endfacet
  facet normal 0.000000e+00 -1.000000e+00 0.000000e+00
    outer loop
      vertex -5.285000e+00 -3.260000e+00 1.809000e+01
      vertex -5.285000e+00 -3.260000e+00 0.000000e+00
      vertex 5.285000e+00 -3.260000e+00 0.000000e+00
    endloop
  endfacet
  facet normal 0.000000e+00 -1.000000e+00 0.000000e+00
    outer loop
      vertex 5.285000e+00 -3.260000e+00 1.809000e+01
      vertex -5.285000e+00 -3.260000e+00 1.809000e+01
      vertex 5.285000e+00 -3.260000e+00 0.000000e+00
    endloop
  endfacet
  facet normal -0.000000e+00 -0.000000e+00 -1.000000e+00
    outer loop
      vertex -5.285000e+00 -3.260000e+00 0.000000e+00
      vertex -5.285000e+00 3.260000e+00 0.000000e+00
      vertex 5.285000e+00 -3.260000e+00 0.000000e+00
    endloop
  endfacet
  facet normal 0.000000e+00 0.000000e+00 -1.000000e+00
    outer loop
      vertex 5.285000e+00 -3.260000e+00 0.000000e+00
      vertex -5.285000e+00 3.260000e+00 0.000000e+00
      vertex 5.285000e+00 3.260000e+00 0.000000e+00
    endloop
  endfacet
  facet normal 0.000000e+00 1.000000e+00 0.000000e+00
    outer loop
      vertex -5.285000e+00 3.260000e+00 0.000000e+00
      vertex -5.285000e+00 3.260000e+00 1.809000e+01
      vertex 5.285000e+00 3.260000e+00 0.000000e+00
    endloop
  endfacet
  facet normal 0.000000e+00 1.000000e+00 0.000000e+00
    outer loop
      vertex 5.285000e+00 3.260000e+00 0.000000e+00
      vertex -5.285000e+00 3.260000e+00 1.809000e+01
      vertex 5.285000e+00 3.260000e+00 1.809000e+01
    endloop
  endfacet
  facet normal 0.000000e+00 0.000000e+00 1.000000e+00
    outer loop
      vertex -1.715000e+00 -1.715000e+00 1.809000e+01
      vertex -5.285000e+00 -3.260000e+00 1.809000e+01
      vertex 5.285000e+00 -3.260000e+00 1.809000e+01
    endloop
  endfacet
  facet normal 0.000000e+00 0.000000e+00 1.000000e+00
    outer loop
      vertex 1.715000e+00 -1.715000e+00 1.809000e+01
      vertex -1.715000e+00 -1.715000e+00 1.809000e+01
      vertex 5.285000e+00 -3.260000e+00 1.809000e+01
    endloop
  endfacet
  facet normal 0.000000e+00 0.000000e+00 1.000000e+00
    outer loop
      vertex -5.285000e+00 3.260000e+00 1.809000e+01
      vertex -5.285000e+00 -3.260000e+00 1.809000e+01
      vertex -1.715000e+00 -1.715000e+00 1.809000e+01
    endloop
  endfacet
  facet normal 0.000000e+00 0.000000e+00 1.000000e+00
    outer loop
      vertex 5.285000e+00 3.260000e+00 1.809000e+01
      vertex -5.285000e+00 3.260000e+00 1.809000e+01
      vertex -1.715000e+00 1.715000e+00 1.809000e+01
    endloop
  endfacet
  facet normal 0.000000e+00 0.000000e+00 1.000000e+00
    outer loop
      vertex 5.285000e+00 3.260000e+00 1.809000e+01
      vertex 1.715000e+00 1.715000e+00 1.809000e+01
      vertex 5.285000e+00 -3.260000e+00 1.809000e+01
    endloop
  endfacet
  facet normal 0.000000e+00 0.000000e+00 1.000000e+00
    outer loop
      vertex 5.285000e+00 3.260000e+00 1.809000e+01
      vertex -1.715000e+00 1.715000e+00 1.809000e+01
      vertex 1.715000e+00 1.715000e+00 1.809000e+01
    endloop
  endfacet
  facet normal 0.000000e+00 0.000000e+00 1.000000e+00
    outer loop
      vertex 1.715000e+00 1.715000e+00 1.809000e+01
      vertex 1.715000e+00 -1.715000e+00 1.809000e+01
      vertex 5.285000e+00 -3.260000e+00 1.809000e+01
    endloop
  endfacet
  facet normal 0.000000e+00 0.000000e+00 1.000000e+00
    outer loop
      vertex -1.715000e+00 -1.715000e+00 1.809000e+01
      vertex -1.715000e+00 1.715000e+00 1.809000e+01
      vertex -5.285000e+00 3.260000e+00 1.809000e+01
    endloop
  endfacet
  facet normal 1.000000e+00 0.000000e+00 0.000000e+00
    outer loop
      vertex 5.285000e+00 -3.260000e+00 1.809000e+01
      vertex 5.285000e+00 -3.260000e+00 0.000000e+00
      vertex 5.285000e+00 3.260000e+00 0.000000e+00
    endloop
  endfacet
  facet normal 1.000000e+00 0.000000e+00 0.000000e+00
    outer loop
      vertex 5.285000e+00 3.260000e+00 1.809000e+01
      vertex 5.285000e+00 -3.260000e+00 1.809000e+01
      vertex 5.285000e+00 3.260000e+00 0.000000e+00
    endloop
  endfacet
  facet normal 1.000000e+00 0.000000e+00 0.000000e+00
    outer loop
      vertex -1.715000e+00 1.715000e+00 1.250000e+00
      vertex -1.715000e+00 1.715000e+00 1.809000e+01
      vertex -1.715000e+00 -1.715000e+00 1.809000e+01
    endloop
  endfacet
  facet normal 1.000000e+00 0.000000e+00 0.000000e+00
    outer loop
      vertex -1.715000e+00 -1.715000e+00 1.250000e+00
      vertex -1.715000e+00 1.715000e+00 1.250000e+00
      vertex -1.715000e+00 -1.715000e+00 1.809000e+01
    endloop
  endfacet
  facet normal 0.000000e+00 1.000000e+00 0.000000e+00
    outer loop
      vertex 1.715000e+00 -1.715000e+00 1.809000e+01
      vertex 1.715000e+00 -1.715000e+00 1.250000e+00
      vertex -1.715000e+00 -1.715000e+00 1.809000e+01
    endloop
  endfacet
  facet normal 0.000000e+00 1.000000e+00 0.000000e+00
    outer loop
      vertex -1.715000e+00 -1.715000e+00 1.809000e+01
      vertex 1.715000e+00 -1.715000e+00 1.250000e+00
      vertex -1.715000e+00 -1.715000e+00 1.250000e+00
    endloop
  endfacet
  facet normal -1.000000e+00 0.000000e+00 0.000000e+00
    outer loop
      vertex 1.715000e+00 1.715000e+00 1.809000e+01
      vertex 1.715000e+00 1.715000e+00 1.250000e+00
      vertex 1.715000e+00 -1.715000e+00 1.809000e+01
    endloop
  endfacet
  facet normal -1.000000e+00 0.000000e+00 0.000000e+00
    outer loop
      vertex 1.715000e+00 -1.715000e+00 1.809000e+01
      vertex 1.715000e+00 1.715000e+00 1.250000e+00
      vertex 1.715000e+00 -1.715000e+00 1.250000e+00
    endloop
  endfacet
  facet normal 0.000000e+00 -1.000000e+00 0.000000e+00
    outer loop
      vertex 1.715000e+00 1.715000e+00 1.250000e+00
      vertex 1.715000e+00 1.715000e+00 1.809000e+01
      vertex -1.715000e+00 1.715000e+00 1.809000e+01
    endloop
  endfacet
  facet normal -0.000000e+00 -1.000000e+00 -0.000000e+00
    outer loop
      vertex -1.715000e+00 1.715000e+00 1.250000e+00
      vertex 1.715000e+00 1.715000e+00 1.250000e+00
      vertex -1.715000e+00 1.715000e+00 1.809000e+01
    endloop
  endfacet
  facet normal 0.000000e+00 0.000000e+00 1.000000e+00
    outer loop
      vertex 1.715000e+00 -1.715000e+00 1.250000e+00
      vertex 1.715000e+00 1.715000e+00 1.250000e+00
      vertex -1.715000e+00 1.715000e+00 1.250000e+00
    endloop
  endfacet
  facet normal 0.000000e+00 0.000000e+00 1.000000e+00
    outer loop
      vertex -1.715000e+00 -1.715000e+00 1.250000e+00
      vertex 1.715000e+00 -1.715000e+00 1.250000e+00
      vertex -1.715000e+00 1.715000e+00 1.250000e+00
    endloop
  endfacet
endsolid Default
